<svg xmlns="http://www.w3.org/2000/svg" width="23" height="23" viewBox="0 0 23 23"><path d="M11.5 2c5.238 0 9.5 4.262 9.5 9.5s-4.262 9.5-9.5 9.5-9.5-4.262-9.5-9.5 4.262-9.5 9.5-9.5m0-2c-6.351 0-11.5 5.149-11.5 11.5 0 6.352 5.149 11.5 11.5 11.5 6.352 0 11.5-5.148 11.5-11.5 0-6.351-5.148-11.5-11.5-11.5zM11.5 9.004c1.376 0 2.496 1.12 2.496 2.496s-1.12 2.496-2.496 2.496-2.496-1.12-2.496-2.496 1.12-2.496 2.496-2.496m0-2c-2.483 0-4.496 2.013-4.496 4.496 0 2.483 2.013 4.496 4.496 4.496 2.483 0 4.496-2.013 4.496-4.496 0-2.483-2.013-4.496-4.496-4.496z"/></svg>